:SAMPLES-PER-SECOND 30
:FRAME-RANGE 1-2775
:FULLY-SPECIFIED
:DEGREES
781
root  12.0049 39.8416 -29.1542 1.94019 -10.5722 -1.1014
RightUpLeg  -7.83786 -9.78902 -0.401544
RightLeg  10.0366 -34.4657 2.66407
RightFoot  -5.22417 -0.103065 1.26403
RightToes  -5.28216e-011 1.2921e-014 -6.02303e-014
Spine  5.96637 -0.33265 5.70911
Spine1  2.12482 0.6956 -2.60994
HEad  -6.02264 22.0606 -13.1408
LeftShoulder1  1.5872 -0.390495 -34.6858
LeftArm  10.6426 2.6618 -27.5302
LeftForeArm  0.377239 -1.0987 -18.8386
LeftHand  0.0868458 2.16763 -3.63688
RightShoulder  7.07584 8.36689 52.1809
RightArm  18.8629 -4.24181 16.9215
RightForeArm  20.2549 -0.292596 17.7947
RightHand  0.189649 10.1009 1.0054
LeftUpLeg  -2.9097 24.8445 13.94
LeftLeg  25.7328 0.10086 0.385298
LeftFoot  -8.46449 0.177785 -5.05812
LeftToes  -2.158e-010 -1.26819e-010 -1.05346e-011
782
root  12.457 39.8798 -29.7296 2.07474 -3.74089 -1.1361
RightUpLeg  -8.06903 -11.245 -1.70515
RightLeg  9.57579 -39.716 3.15992
RightFoot  -4.29593 -0.100597 1.15923
RightToes  -5.28216e-011 1.2921e-014 -6.02303e-014
Spine  5.41005 -0.717021 4.30428
Spine1  1.89445 -0.116631 -1.28465
HEad  -3.92504 22.6376 -13.9381
LeftShoulder1  1.51875 -0.2395 -34.502
LeftArm  13.0171 4.34619 -25.754
LeftForeArm  -0.00603019 -3.84781 -18.2415
LeftHand  0.0982804 1.71874 -3.46757
RightShoulder  5.89797 6.40826 52.1014
RightArm  25.089 -7.07883 17.1313
RightForeArm  17.5624 1.93235 17.8719
RightHand  0.131709 9.92902 0.586458
LeftUpLeg  0.292781 32.6353 17.7655
LeftLeg  21.7385 2.21101 1.29845
LeftFoot  -7.14742 0.226864 -5.02405
LeftToes  -2.158e-010 -1.26819e-010 -1.05346e-011
783
root  13.0335 39.9504 -30.3485 2.29471 3.25399 -0.798664
RightUpLeg  -8.21311 -13.6003 -3.70685
RightLeg  9.20983 -44.4004 3.63803
RightFoot  -3.12159 -0.102731 1.13366
RightToes  -5.28216e-011 1.2921e-014 -6.02303e-014
Spine  5.07468 -1.12593 2.9044
Spine1  1.47834 -0.863019 -0.421025
HEad  -1.9643 23.1801 -14.4642
LeftShoulder1  1.48767 -0.188148 -34.2278
LeftArm  13.5394 4.76841 -24.874
LeftForeArm  0.431823 -5.50286 -17.624
LeftHand  0.0851763 1.62573 -2.95219
RightShoulder  4.69058 4.46807 51.5516
RightArm  30.9124 -9.29146 17.3352
RightForeArm  14.268 4.70516 17.4973
RightHand  0.21743 9.96514 1.22911
LeftUpLeg  2.88368 40.8151 20.7973
LeftLeg  17.6478 7.37416 2.94336
LeftFoot  -5.40515 0.2577 -4.34394
LeftToes  -2.158e-010 -1.26819e-010 -1.05346e-011
784
root  13.721 40.0201 -31.0011 2.41052 10.6339 -0.542026
RightUpLeg  -7.68878 -16.065 -5.95237
RightLeg  8.36801 -49.212 4.28894
RightFoot  -1.4573 -0.0641976 0.627383
RightToes  -5.28216e-011 1.2921e-014 -6.02303e-014
Spine  4.59179 -1.62335 1.74516
Spine1  1.71634 -1.67994 0.481683
HEad  -0.293411 23.3293 -15.0018
LeftShoulder1  1.50244 -0.232541 -34.1463
LeftArm  12.3741 3.96468 -24.7637
LeftForeArm  1.64824 -6.33722 -17.1104
LeftHand  0.047323 1.69446 -1.80973
RightShoulder  3.80009 3.09087 50.5286
RightArm  36.6643 -11.2483 17.4911
RightForeArm  11.2451 7.65422 16.6469
RightHand  0.154597 10.0947 0.744318
LeftUpLeg  4.76252 41.9035 22.8739
LeftLeg  14.3697 19.2061 2.7192
LeftFoot  -4.18009 0.240078 -3.43534
LeftToes  -2.158e-010 -1.26819e-010 -1.05346e-011
785
root  14.5243 40.043 -31.7237 2.47409 18.3267 -0.553907
RightUpLeg  -6.5675 -17.8792 -8.39849
RightLeg  7.06147 -54.8851 5.34473
RightFoot  0.447259 -0.02371 0.259081
RightToes  -5.28216e-011 1.2921e-014 -6.02303e-014
Spine  3.89786 -2.12568 1.11849
Spine1  2.32817 -2.45145 1.37268
HEad  1.20954 23.264 -15.2901
LeftShoulder1  1.56745 -0.398148 -34.1088
LeftArm  10.9558 1.98268 -25.5915
LeftForeArm  2.62487 -6.27713 -16.9753
LeftHand  0.0417706 1.61668 -1.58411
RightShoulder  3.22973 2.23363 49.3934
RightArm  42.6501 -12.7886 17.3182
RightForeArm  6.7736 10.4962 15.527
RightHand  0.0902993 9.81114 0.280876
LeftUpLeg  4.65122 35.6518 22.5188
LeftLeg  11.7876 34.2639 0.993851
LeftFoot  -2.89595 0.181923 -2.22828
LeftToes  -2.158e-010 -1.26819e-010 -1.05346e-011
786
root  15.4539 40.022 -32.5229 2.78418 26.0968 -0.331981
RightUpLeg  -5.38724 -20.4266 -11.4206
RightLeg  6.72535 -59.3706 5.77624
RightFoot  2.11349 0.0426583 -0.239185
RightToes  -5.28216e-011 1.2921e-014 -6.02303e-014
Spine  3.44728 -2.54522 0.509508
Spine1  2.23259 -3.10895 2.30157
HEad  3.01419 22.4972 -14.7949
LeftShoulder1  1.64333 -0.581289 -34.1672
LeftArm  10.7928 -0.301968 -27.2336
LeftForeArm  2.90095 -6.17887 -16.9811
LeftHand  0.0359249 1.52679 -1.35244
RightShoulder  2.7945 1.62147 47.8573
RightArm  47.1307 -14.0172 16.9133
RightForeArm  4.20568 12.0177 14.8142
RightHand  -0.0823831 9.53331 -1.0406
LeftUpLeg  3.05273 28.1232 19.7949
LeftLeg  8.89574 42.5061 -1.12525
LeftFoot  0.0233881 0.470146 -4.72617
LeftToes  -2.158e-010 -1.26819e-010 -1.05346e-011
787
root  16.4948 39.9135 -33.3544 2.97137 33.2732 0.135237
RightUpLeg  -3.98259 -23.5251 -14.9481
RightLeg  7.82208 -58.9686 4.86394
RightFoot  3.14854 -0.149169 1.34221
RightToes  -5.28216e-011 1.2921e-014 -6.02303e-014
Spine  3.12875 -2.6788 0.148062
Spine1  2.07842 -3.34617 2.81575
HEad  5.02409 20.9665 -13.5155
LeftShoulder1  1.7036 -0.726638 -34.2112
LeftArm  11.8398 -2.49565 -29.529
LeftForeArm  3.08433 -6.38833 -16.9416
LeftHand  0.0405707 1.29305 -1.37021
RightShoulder  2.34828 0.957646 46.1986
RightArm  51.8164 -14.9061 16.1263
RightForeArm  1.14598 13.4779 14.0586
RightHand  0.177737 9.92508 0.934313
LeftUpLeg  1.89661 23.2556 17.1524
LeftLeg  5.36005 41.6324 -4.17173
LeftFoot  4.00997 1.43882 -10.8329
LeftToes  -2.158e-010 -1.26819e-010 -1.05346e-011
788
root  17.4625 39.884 -34.1814 3.77609 38.8899 2.01725
RightUpLeg  -3.1695 -26.3901 -18.6557
RightLeg  8.16152 -48.8684 3.5488
RightFoot  3.03179 -0.638156 5.22142
RightToes  -5.28216e-011 1.2921e-014 -6.02303e-014
Spine  3.8807 -2.26141 -1.65042
Spine1  1.322 -2.9402 2.73515
HEad  6.38689 19.3693 -12.3538
LeftShoulder1  1.69163 -0.644614 -34.7098
LeftArm  15.9362 -4.32485 -31.3078
LeftForeArm  1.39539 -8.00342 -16.5341
LeftHand  0.0595542 0.912837 -1.6953
RightShoulder  2.25926 0.851262 45.5184
RightArm  51.7793 -14.8375 14.7462
RightForeArm  1.23191 12.3219 15.0151
RightHand  0.165097 9.62209 0.86863
LeftUpLeg  -0.45734 24.3785 13.6395
LeftLeg  7.99769 35.1781 -3.61359
LeftFoot  1.50417 1.1275 -10.0788
LeftToes  -2.158e-010 -1.26819e-010 -1.05346e-011
789
root  18.3823 39.8644 -35.0198 5.52179 44.1018 4.66899
RightUpLeg  -3.93819 -26.7576 -21.1293
RightLeg  9.31679 -35.4945 0.543401
RightFoot  0.228167 -0.92904 9.16709
RightToes  -5.28216e-011 1.2921e-014 -6.02303e-014
Spine  5.23367 -1.96483 -2.84144
Spine1  -0.212126 -2.42975 1.54681
HEad  7.63696 17.2856 -10.8583
LeftShoulder1  1.69294 -0.607856 -35.0982
LeftArm  21.7078 -5.06045 -32.3557
LeftForeArm  -1.79615 -10.6213 -15.5324
LeftHand  0.103286 0.374896 -2.46376
RightShoulder  2.2261 0.773182 45.679
RightArm  44.7346 -13.484 13.3968
RightForeArm  6.3624 6.96843 17.7542
RightHand  0.156147 9.75021 0.787538
LeftUpLeg  -3.46891 21.6731 8.14793
LeftLeg  10.5376 32.9948 -0.949619
LeftFoot  -0.122588 0.777015 -7.89677
LeftToes  -2.158e-010 -1.26819e-010 -1.05346e-011
790
root  19.2363 39.8405 -35.7478 6.25214 48.056 5.94586
RightUpLeg  -5.04526 -21.1133 -20.7277
RightLeg  9.26878 -22.6809 -2.2017
RightFoot  -3.76339 -0.765171 11.1322
RightToes  -5.28216e-011 1.2921e-014 -6.02303e-014
Spine  5.7676 -1.44453 -2.38615
Spine1  -0.224861 -1.51134 -0.780717
HEad  7.93651 15.5846 -10.6716
LeftShoulder1  1.68701 -0.562938 -35.3999
LeftArm  26.0779 -5.24576 -33.1547
LeftForeArm  -3.80346 -12.9686 -14.1918
LeftHand  0.135387 -0.154067 -2.84097
RightShoulder  2.50052 1.36018 45.0663
RightArm  36.0934 -12.6391 12.8189
RightForeArm  9.4923 1.94866 19.0119
RightHand  0.227868 9.3577 1.38786
LeftUpLeg  -4.84207 17.6596 4.96851
LeftLeg  12.3196 33.1824 0.663105
LeftFoot  -1.79696 0.579813 -6.81203
LeftToes  -2.158e-010 -1.26819e-010 -1.05346e-011
791
root  20.0515 39.9061 -36.331 6.24121 51.1933 6.36305
RightUpLeg  -7.06759 -11.5192 -19.1544
RightLeg  11.827 -13.5173 -4.21738
RightFoot  -5.76807 -0.296888 5.28814
RightToes  -5.28216e-011 1.2921e-014 -6.02303e-014
Spine  6.70381 -0.891649 -1.63033
Spine1  -0.584782 -0.641148 -2.45192
HEad  8.54945 14.6409 -10.4894
LeftShoulder1  1.65343 -0.490953 -35.3079
LeftArm  30.0028 -3.96121 -33.4964
LeftForeArm  -5.81312 -15.4025 -12.4017
LeftHand  0.122665 -0.201318 -2.54496
RightShoulder  2.94196 2.2192 45.0323
RightArm  30.4446 -12.2493 11.9018
RightForeArm  9.87945 0.32809 19.0859
RightHand  0.21373 8.56956 1.38511
LeftUpLeg  -4.06224 14.3891 3.50096
LeftLeg  11.2893 33.5697 -0.263489
LeftFoot  -3.04149 0.473379 -6.26976
LeftToes  -2.158e-010 -1.26819e-010 -1.05346e-011
792
root  20.8289 39.8869 -36.7617 6.88907 54.508 7.08117
RightUpLeg  -9.26839 -3.40422 -18.2546
RightLeg  15.5595 -12.1185 -4.06143
RightFoot  -6.36548 -0.447728 9.28559
RightToes  -5.28216e-011 1.2921e-014 -6.02303e-014
Spine  7.0889 -0.850333 -2.3048
Spine1  -1.10644 -0.549306 -3.20517
HEad  9.58826 14.44 -10.1422
LeftShoulder1  1.57368 -0.312378 -35.1555
LeftArm  32.7006 -1.50962 -33.0924
LeftForeArm  -7.70007 -17.3949 -10.6677
LeftHand  0.104483 -0.195566 -2.16739
RightShoulder  3.24528 2.83722 44.8098
RightArm  29.7989 -11.1765 11.5819
RightForeArm  9.41691 0.285853 19.1065
RightHand  0.153346 8.3832 0.905218
LeftUpLeg  -3.64906 12.7945 1.97126
LeftLeg  10.5993 32.037 -0.842551
LeftFoot  -4.45046 0.393892 -6.09615
LeftToes  -2.158e-010 -1.26819e-010 -1.05346e-011
793
root  21.5726 39.9191 -37.1125 6.91455 58.7274 6.85863
RightUpLeg  -11.6665 -3.81709 -15.4892
RightLeg  19.19 -10.0141 -4.05218
RightFoot  -5.99111 -0.513655 10.0934
RightToes  -5.28216e-011 1.2921e-014 -6.02303e-014
Spine  7.64007 -1.28461 -3.33082
Spine1  -1.85281 -1.24709 -2.21137
HEad  10.5106 14.2816 -9.66142
LeftShoulder1  1.5362 -0.235043 -35.0079
LeftArm  33.0541 0.965695 -32.3085
LeftForeArm  -8.58581 -18.007 -10.1008
LeftHand  0.0921856 -0.192854 -1.91101
RightShoulder  3.17179 2.75629 44.3431
RightArm  23.0101 -9.92769 11.5551
RightForeArm  15.6339 -1.61594 18.5831
RightHand  0.148476 8.7613 0.824236
LeftUpLeg  -3.33724 11.8361 1.14302
LeftLeg  9.88174 29.0055 -1.14414
LeftFoot  -5.38272 0.331301 -5.74308
LeftToes  -2.158e-010 -1.26819e-010 -1.05346e-011
794
root  22.3312 39.9722 -37.3836 6.39893 62.8697 6.06358
RightUpLeg  -14.3185 -5.55377 -11.8511
RightLeg  22.5251 -11.5872 -5.43313
RightFoot  -5.94387 -0.532593 10.4109
RightToes  -5.28216e-011 1.2921e-014 -6.02303e-014
Spine  7.77792 -1.70242 -4.23057
Spine1  -1.83714 -1.94605 -0.790857
HEad  10.9912 13.5553 -8.77501
LeftShoulder1  1.57041 -0.357851 -34.5965
LeftArm  30.5991 2.46973 -31.5145
LeftForeArm  -7.45218 -16.683 -11.2967
LeftHand  0.088415 -0.0057689 -1.96861
RightShoulder  3.06484 2.552 44.296
RightArm  19.7625 -8.94166 11.517
RightForeArm  16.777 0.953386 17.7676
RightHand  0.141069 9.0532 0.735428
LeftUpLeg  -2.88447 10.9455 0.709161
LeftLeg  9.42192 25.9222 -1.13408
LeftFoot  -6.29223 0.269138 -5.2468
LeftToes  -2.158e-010 -1.26819e-010 -1.05346e-011
795
root  23.0972 40.0107 -37.6028 5.63354 66.3746 5.1144
RightUpLeg  -17.0572 -7.2804 -7.95843
RightLeg  24.1893 -13.3708 -6.68435
RightFoot  -5.80385 -0.514564 9.79808
RightToes  -5.28216e-011 1.2921e-014 -6.02303e-014
Spine  7.86528 -1.92304 -4.92633
Spine1  -1.63154 -2.36555 0.352683
HEad  11.188 12.5139 -7.86935
LeftShoulder1  1.59729 -0.47785 -34.0559
LeftArm  26.2601 2.97967 -30.6395
LeftForeArm  -4.33647 -13.5163 -13.7758
LeftHand  0.0882215 0.441146 -2.2745
RightShoulder  3.07334 2.5342 44.5619
RightArm  17.1633 -8.01745 11.7515
RightForeArm  15.088 4.0709 16.6967
RightHand  0.189887 9.19038 1.10983
LeftUpLeg  -2.08628 10.3551 0.495054
LeftLeg  8.87996 23.2375 -1.22471
LeftFoot  -7.19693 0.222571 -4.95736
LeftToes  -2.158e-010 -1.26819e-010 -1.05346e-011
